<svg width="64" height="64" viewBox="0 0 64 64" fill="none" xmlns="http://www.w3.org/2000/svg">
  <circle cx="32" cy="32" r="32" fill="#EBFFFB"/>
  <path fill-rule="evenodd" clip-rule="evenodd" d="M51 16C51 20.4183 47.4183 24 43 24C38.5817 24 35 20.4183 35 16C35 11.5817 38.5817 8 43 8C47.4183 8 51 11.5817 51 16ZM43.2854 12C43.6632 12 43.9879 12.2478 44.059 12.5905L44.0906 12.7429C44.2148 13.3418 44.8858 13.6995 45.5097 13.4994L45.6685 13.4485C46.0254 13.334 46.4201 13.4697 46.6091 13.7718L46.8944 14.2282C47.0834 14.5304 47.0133 14.9139 46.7274 15.1421L46.6003 15.2435C46.1006 15.6424 46.1006 16.3577 46.6003 16.7566L46.7274 16.8581C47.0133 17.0862 47.0834 17.4697 46.8944 17.7719L46.6091 18.2283C46.4201 18.5304 46.0254 18.6661 45.6684 18.5516L45.5097 18.5007C44.8858 18.3006 44.2148 18.6582 44.0906 19.2572L44.059 19.4096C43.9879 19.7523 43.6632 20.0001 43.2854 20.0001H42.7146C42.3367 20.0001 42.0121 19.7523 41.941 19.4096L41.9094 19.2572C41.7851 18.6582 41.1142 18.3006 40.4903 18.5007L40.3316 18.5516C39.9746 18.6661 39.5799 18.5304 39.3909 18.2283L39.1056 17.7719C38.9166 17.4697 38.9867 17.0862 39.2726 16.858L39.3997 16.7566C39.8994 16.3577 39.8994 15.6424 39.3997 15.2435L39.2726 15.1421C38.9867 14.9139 38.9166 14.5304 39.1056 14.2282L39.3909 13.7718C39.5799 13.4697 39.9746 13.334 40.3315 13.4485L40.4903 13.4994C41.1142 13.6995 41.7851 13.3418 41.9094 12.7429L41.941 12.5905C42.0121 12.2478 42.3367 12 42.7146 12H43.2854ZM43 17.1429C43.6627 17.1429 44.2 16.6312 44.2 16.0001C44.2 15.3689 43.6627 14.8572 43 14.8572C42.3372 14.8572 41.8 15.3689 41.8 16.0001C41.8 16.6312 42.3372 17.1429 43 17.1429ZM21.75 15H33V17.5H27.875C28.7063 18.3148 29.3666 19.2873 29.8173 20.3605C30.2681 21.4337 30.5002 22.586 30.5 23.75C30.5002 24.914 30.2681 26.0663 29.8173 27.1395C29.3666 28.2127 28.7063 29.1852 27.875 30H39.25C40.9076 30 42.4973 29.3415 43.6694 28.1694C44.3523 27.4866 44.8608 26.662 45.1663 25.7648L47.9384 24.7864C47.7072 26.7253 46.8319 28.5424 45.4372 29.9372C43.7962 31.5781 41.5706 32.5 39.25 32.5H21.75C19.4294 32.5 17.2038 31.5781 15.5628 29.9372C13.9219 28.2962 13 26.0706 13 23.75C13 21.4294 13.9219 19.2038 15.5628 17.5628C17.2038 15.9219 19.4294 15 21.75 15ZM21.75 37.5C19.4294 37.5 17.2038 38.4219 15.5628 40.0628C13.9219 41.7038 13 43.9294 13 46.25C13 48.5706 13.9219 50.7962 15.5628 52.4372C17.2038 54.0781 19.4294 55 21.75 55H39.25C41.5706 55 43.7962 54.0781 45.4372 52.4372C47.0781 50.7962 48 48.5706 48 46.25C48 43.9294 47.0781 41.7038 45.4372 40.0628C43.7962 38.4219 41.5706 37.5 39.25 37.5H21.75ZM39.25 52.5C37.5924 52.5 36.0027 51.8415 34.8306 50.6694C33.6585 49.4973 33 47.9076 33 46.25C33 44.5924 33.6585 43.0027 34.8306 41.8306C36.0027 40.6585 37.5924 40 39.25 40C40.9076 40 42.4973 40.6585 43.6694 41.8306C44.8415 43.0027 45.5 44.5924 45.5 46.25C45.5 47.9076 44.8415 49.4973 43.6694 50.6694C42.4973 51.8415 40.9076 52.5 39.25 52.5ZM21.75 17.5C20.0924 17.5 18.5027 18.1585 17.3306 19.3306C16.1585 20.5027 15.5 22.0924 15.5 23.75C15.5 25.4076 16.1585 26.9973 17.3306 28.1694C18.5027 29.3415 20.0924 30 21.75 30C23.4076 30 24.9973 29.3415 26.1694 28.1694C27.3415 26.9973 28 25.4076 28 23.75C28 22.0924 27.3415 20.5027 26.1694 19.3306C24.9973 18.1585 23.4076 17.5 21.75 17.5Z" fill="#0B3C49"/>
</svg>
